<?xml version="1.0" encoding="utf-8"?>
<!-- Generator: Adobe Illustrator 14.0.0, SVG Export Plug-In . SVG Version: 6.00 Build 43363)  -->
<!DOCTYPE svg PUBLIC "-//W3C//DTD SVG 1.1//EN" "http://www.w3.org/Graphics/SVG/1.1/DTD/svg11.dtd">
<svg version="1.1" id="Layer_1" xmlns="http://www.w3.org/2000/svg" xmlns:xlink="http://www.w3.org/1999/xlink" 
	viewBox="0 0 200 200" xml:space="preserve">
<g>
	<path d="M52.498,85.683c-25.888,15.919-21.822,40.156-16.159,51.812c5.662,11.654,25.486,19.514,47.523,8.062
		c33.118-17.209,35.771-68.346,35.771-68.346S78.385,69.763,52.498,85.683z"/>
	<path d="M195.99,18.999c-10.853-19.355-45.247,1.713-61.746,8.933c-18.712,8.19-55.76,8.19-83.079,20.845
		C23.847,61.432-17.691,107.958,8.13,154.857c25.82,46.898,92.807,37.966,121.623,17.494c19.071-13.549,34.804-55.088,40.417-68.115
		S211.885,47.347,195.99,18.999z M161.1,90.754c-8.283,26.731-31.635,62.227-49.094,72.503c-17.46,10.276-75.655,29.068-95.203-6.95
		c-19.55-36.02-3.034-82.804,44.192-103.209c28.608-12.361,52.63-17.487,70.199-17.577c21.426-0.108,36.103-33.259,56.742-12.049
		C208.574,44.681,169.383,64.022,161.1,90.754z"/>
</g>
</svg>
