<?xml version="1.0" encoding="utf-8"?>
<!-- Generator: Adobe Illustrator 14.0.0, SVG Export Plug-In . SVG Version: 6.00 Build 43363)  -->
<!DOCTYPE svg PUBLIC "-//W3C//DTD SVG 1.1//EN" "http://www.w3.org/Graphics/SVG/1.1/DTD/svg11.dtd">
<svg version="1.1" id="Layer_1" xmlns="http://www.w3.org/2000/svg" xmlns:xlink="http://www.w3.org/1999/xlink" 
viewBox="0 0 200 200" enable-background="new 0 0 200 200" xml:space="preserve">
<g>
	<path d="M189.787,46.953H10.213C4.572,46.953,0,51.525,0,57.166v69.452c0,5.64,4.572,10.213,10.213,10.213h6.003
		c0-11.942,9.681-21.622,21.622-21.622s21.622,9.68,21.622,21.622h81.082c0-11.942,9.68-21.622,21.621-21.622
		s21.621,9.68,21.621,21.622h6.004c5.641,0,10.213-4.573,10.213-10.213V57.166C200,51.525,195.428,46.953,189.787,46.953z
		 M48.648,95.602H21.08l5.416-9.38c1.094-1.896,0.444-3.433-1.451-3.433s-4.32,1.537-5.415,3.433l-5.416,9.38H5.405V52.358h43.243
		V95.602z M97.297,95.602H54.054V52.358h43.243V95.602z M145.945,95.602h-43.242V52.358h43.242V95.602z M194.595,95.602h-43.243
		V52.358h43.243V95.602z"/>
	<path d="M37.838,120.614c-8.956,0-16.216,7.261-16.216,16.217c0,8.955,7.26,16.216,16.216,16.216s16.216-7.261,16.216-16.216
		C54.054,127.875,46.794,120.614,37.838,120.614z M37.838,142.236c-2.985,0-5.405-2.42-5.405-5.405c0-2.986,2.42-5.406,5.405-5.406
		c2.985,0,5.405,2.42,5.405,5.406C43.243,139.816,40.823,142.236,37.838,142.236z"/>
	<path d="M162.162,120.614c-8.956,0-16.217,7.261-16.217,16.217c0,8.955,7.261,16.216,16.217,16.216s16.217-7.261,16.217-16.216
		C178.379,127.875,171.118,120.614,162.162,120.614z M162.162,142.236c-2.984,0-5.405-2.42-5.405-5.405
		c0-2.986,2.421-5.406,5.405-5.406c2.985,0,5.405,2.42,5.405,5.406C167.567,139.816,165.147,142.236,162.162,142.236z"/>
</g>
</svg>
