<?xml version="1.0" encoding="utf-8"?>
<!-- Generator: Adobe Illustrator 14.0.0, SVG Export Plug-In . SVG Version: 6.00 Build 43363)  -->
<!DOCTYPE svg PUBLIC "-//W3C//DTD SVG 1.1//EN" "http://www.w3.org/Graphics/SVG/1.1/DTD/svg11.dtd">
<svg version="1.1" id="Layer_1" xmlns="http://www.w3.org/2000/svg" xmlns:xlink="http://www.w3.org/1999/xlink" 
	viewBox="0 0 200 200" enable-background="new 0 0 200 200" xml:space="preserve">
<polygon points="105.177,15.84 106.393,18.879 102.138,18.879 96.362,16.752 94.539,14.016 88.46,12.8 82.381,9.457 85.724,5.81 
	83.597,3.986 85.421,1.858 83.293,1.858 81.773,0.034 77.821,2.466 72.351,2.466 68.703,1.554 55.329,6.113 48.946,6.417 
	48.034,4.29 45.603,4.594 43.171,10.065 38.004,14.32 35.572,17.967 37.7,21.615 32.836,24.958 28.277,27.086 26.149,29.822 
	23.414,34.685 20.679,39.548 17.64,45.627 19.463,49.274 19.463,52.618 18.551,60.217 16.423,62.953 18.247,65.992 18.247,71.463 
	20.07,72.375 24.934,77.542 27.062,82.709 32.229,85.749 38.916,92.132 43.779,90.308 48.338,89.396 53.506,91.524 59.584,88.484 
	63.84,86.661 70.527,87.572 72.958,91.828 79.037,90.612 81.773,93.955 81.165,104.897 79.949,106.418 87.244,117.056 
	88.156,120.703 90.588,126.782 89.371,129.214 91.803,133.165 89.676,139.244 87.244,145.627 86.94,153.834 93.627,167.512 
	93.627,171.463 95.147,177.846 97.882,181.797 102.138,193.348 100.617,194.26 102.138,198.211 105.785,200.034 111.561,197.604 
	119.768,196.995 128.885,191.523 132.837,184.229 136.181,183.014 137.7,176.63 138.309,173.591 143.171,171.463 143.476,163.256 
	145.603,156.266 151.378,150.49 156.545,146.234 156.545,134.988 156.849,131.949 154.113,125.871 154.722,123.135 151.985,121.008 
	156.849,110.369 160.801,105.81 167.791,98.515 174.478,92.74 179.037,83.317 181.772,76.934 182.381,70.247 171.438,73.591 
	165.968,74.198 162.624,72.375 163.231,68.423 158.369,63.561 155.633,61.433 153.202,59.001 149.25,51.706 147.426,45.627 
	143.171,40.156 143.476,37.117 138.916,28.606 141.651,22.527 139.22,16.448 134.661,17.664 131.621,15.536 126.758,17.664 
	117.943,16.144 114.903,14.624 110.344,11.889 "/>
<polygon points="162.929,167.512 161.712,163.864 165.359,158.393 164.144,150.49 170.831,145.02 173.565,142.892 176.605,139.852 
	176.605,136.205 179.949,145.323 178.733,148.363 175.998,158.393 171.438,172.071 166.575,174.199 163.231,171.159 "/>
</svg>
