<?xml version="1.0" encoding="utf-8"?>
<!-- Generator: Adobe Illustrator 14.0.0, SVG Export Plug-In . SVG Version: 6.00 Build 43363)  -->
<!DOCTYPE svg PUBLIC "-//W3C//DTD SVG 1.1//EN" "http://www.w3.org/Graphics/SVG/1.1/DTD/svg11.dtd">
<svg version="1.1" id="Layer_1" xmlns="http://www.w3.org/2000/svg" xmlns:xlink="http://www.w3.org/1999/xlink" 
	viewBox="0 0 200 200" enable-background="new 0 0 200 200" xml:space="preserve">
<path d="M143.421,7.166c-4.598-4.598-11.781-4.869-16.046-0.604L6.435,127.502c-4.265,4.265-3.994,11.448,0.604,16.046
	l37.902,37.903c0.093,0.092,0.192,0.172,0.288,0.262c0.166,0.174,0.325,0.352,0.496,0.521c15.065,15.064,39.488,15.064,54.552,0
	c12.448-12.447,14.6-31.278,6.478-45.947l29.405-29.405c14.668,8.122,33.499,5.971,45.947-6.477
	c15.064-15.064,15.064-39.488,0-54.553c-0.171-0.17-0.348-0.329-0.521-0.496c-0.091-0.095-0.17-0.195-0.262-0.288L143.421,7.166z
	 M75.206,126.922l-8.302,8.302l8.302,8.301c2.947,2.947,2.284,8.39-1.482,12.156c-3.767,3.766-9.208,4.43-12.156,1.482l-8.301-8.302
	l-8.302,8.302c-2.947,2.947-8.389,2.283-12.156-1.482c-3.766-3.767-4.429-9.209-1.482-12.156l8.302-8.301l-8.302-8.302
	c-2.947-2.947-2.283-8.391,1.483-12.156c3.766-3.767,9.208-4.429,12.155-1.482l8.302,8.302l8.301-8.302
	c2.947-2.946,8.389-2.284,12.155,1.482C77.489,118.531,78.153,123.975,75.206,126.922z M140.776,81.807
	c-3.139,3.139-8.226,3.139-11.363,0c-3.14-3.14-3.14-8.227-0.002-11.364c3.14-3.139,8.227-3.141,11.367-0.001
	C143.916,73.579,143.916,78.669,140.776,81.807z M118.045,59.077c-3.137,3.138-8.225,3.137-11.362,0
	c-3.139-3.139-3.139-8.227-0.002-11.365c3.14-3.139,8.229-3.14,11.367-0.001C121.186,50.849,121.186,55.938,118.045,59.077z
	 M163.509,59.077c-3.141,3.138-8.228,3.137-11.365,0c-3.14-3.14-3.14-8.227,0-11.365c3.138-3.138,8.225-3.14,11.365,0
	C166.646,50.849,166.645,55.939,163.509,59.077z M140.776,36.346c-3.139,3.139-8.226,3.138-11.363,0
	c-3.14-3.139-3.14-8.227,0-11.365c3.138-3.138,8.225-3.139,11.365-0.001C143.916,28.119,143.914,33.208,140.776,36.346z"/>
</svg>
