<?xml version="1.0" encoding="utf-8"?>
<!-- Generator: Adobe Illustrator 14.0.0, SVG Export Plug-In . SVG Version: 6.00 Build 43363)  -->
<!DOCTYPE svg PUBLIC "-//W3C//DTD SVG 1.1//EN" "http://www.w3.org/Graphics/SVG/1.1/DTD/svg11.dtd">
<svg version="1.1" id="Layer_1" xmlns="http://www.w3.org/2000/svg" xmlns:xlink="http://www.w3.org/1999/xlink" 
	 viewBox="0 0 200 200" xml:space="preserve">
<path d="M195.748,82.413c-7.682-19.204-67.859-65.448-102.461-75.557L71.167,4.048C41.698,0.155,19.844,18.654,6.677,44.79
	c-17.05,33.842,0.778,82.287,24.361,109.041c26.959,30.584,78.681,52.056,118.238,35.755
	C185.626,174.607,210.106,118.31,195.748,82.413z M53.257,27.904c0.472,0.523,1.032,0.991,1.681,1.365
	c3.157,1.82,7.119,0.862,8.849-2.139c0.58-1.007,0.829-2.115,0.793-3.21c3.191,2.175,4.234,6.445,2.292,9.813
	c-2.038,3.535-6.583,4.732-10.155,2.675C53.674,34.653,52.329,31.104,53.257,27.904z M39.121,86.104
	c-5.213-0.583-9.174-4.64-9.815-9.573c0.96,0.437,2.004,0.74,3.116,0.864c5.409,0.605,10.26-3.072,10.835-8.214
	c0.193-1.724-0.128-3.389-0.833-4.867c5.668,1.072,9.646,6.294,9,12.064C50.747,82.434,45.239,86.788,39.121,86.104z
	 M74.021,128.008c-4.316,4.303-11.336,4.256-15.683-0.104c-3.704-3.715-4.258-9.357-1.674-13.608
	c0.476,0.941,1.102,1.831,1.891,2.624c3.843,3.854,9.929,4.017,13.592,0.364c1.229-1.226,2.019-2.725,2.395-4.319
	C78.295,117.347,78.133,123.909,74.021,128.008z M113.655,74.206c-4.187,5.184-11.825,5.957-17.061,1.729
	c-4.462-3.604-5.727-9.673-3.417-14.597c0.628,0.966,1.412,1.86,2.364,2.629c4.629,3.739,11.265,3.202,14.817-1.198
	c1.192-1.475,1.875-3.197,2.098-4.976C117.049,62.115,117.643,69.268,113.655,74.206z M103.835,114.693
	c1.044,0.506,2.185,0.87,3.403,1.038c5.934,0.82,11.376-3.088,12.154-8.728c0.262-1.892-0.044-3.732-0.777-5.379
	c6.206,1.34,10.434,7.198,9.559,13.527c-0.918,6.645-7.102,11.278-13.813,10.353C108.643,124.715,104.4,120.138,103.835,114.693z
	 M102.485,171.453c-5.775,4.821-14.271,4.155-18.98-1.486c-4.012-4.807-3.964-11.667-0.293-16.575
	c0.458,1.178,1.101,2.306,1.957,3.331c4.163,4.986,11.513,5.713,16.414,1.62c1.644-1.372,2.792-3.113,3.45-5.006
	C109.02,158.952,107.987,166.861,102.485,171.453z M147.914,96.085c1.319,0.362,2.719,0.54,4.168,0.474
	c7.051-0.325,12.517-6.022,12.208-12.724c-0.104-2.247-0.853-4.314-2.056-6.065c7.479,0.22,13.633,6.102,13.979,13.622
	c0.364,7.895-5.806,14.592-13.78,14.959C155.638,106.663,149.74,102.272,147.914,96.085z M143.959,157.303
	c-6.045-1.131-10.328-6.215-10.654-12.037c1.085,0.592,2.28,1.037,3.57,1.276c6.271,1.174,12.26-2.709,13.375-8.671
	c0.373-1.999,0.141-3.973-0.555-5.762c6.535,1.74,10.736,8.188,9.484,14.879C157.867,154.012,151.053,158.629,143.959,157.303z"/>
</svg>
