<?xml version="1.0" encoding="utf-8"?>
<!-- Generator: Adobe Illustrator 14.0.0, SVG Export Plug-In . SVG Version: 6.00 Build 43363)  -->
<!DOCTYPE svg PUBLIC "-//W3C//DTD SVG 1.1//EN" "http://www.w3.org/Graphics/SVG/1.1/DTD/svg11.dtd">
<svg version="1.1" id="Layer_1" xmlns="http://www.w3.org/2000/svg" xmlns:xlink="http://www.w3.org/1999/xlink" 
	viewBox="0 0 100 90" enable-background="new 0 0 100 90" xml:space="preserve">
<g>
	<rect x="70" y="70" width="10" height="10"/>
	<rect x="70" width="10" height="10"/>
	<rect x="80" y="80" width="10" height="10"/>
	<rect x="20" width="10" height="10"/>
	<rect x="10" y="80" width="10" height="10"/>
	<rect x="20" y="70" width="10" height="10"/>
	<path d="M90,40V30H80V20H70V10H60v10H50H40V10H30v10H20v10H10v10H0v10v10h10V50h10v10h10v10h10h10h10h10V60h10V50h10v10h10V50V40
		H90z M70,30v10H60V30H70z M40,30v10H30V30H40z"/>
</g>
</svg>
